Jump_normalized_precision_landing08_filtered_grf
version=1
nRows=23
nColumns=37
inDegrees=yes
endheader
time		1_ground_force_vx		1_ground_force_vy		1_ground_force_vz		1_ground_force_px		1_ground_force_py		1_ground_force_pz		1_ground_torque_x		1_ground_torque_y		1_ground_torque_z		2_ground_force_vx		2_ground_force_vy		2_ground_force_vz		2_ground_force_px		2_ground_force_py		2_ground_force_pz		2_ground_torque_x		2_ground_torque_y		2_ground_torque_z		3_ground_force_vx		3_ground_force_vy		3_ground_force_vz		3_ground_force_px		3_ground_force_py		3_ground_force_pz		3_ground_torque_x		3_ground_torque_y		3_ground_torque_z		4_ground_force_vx		4_ground_force_vy		4_ground_force_vz		4_ground_force_px		4_ground_force_py		4_ground_force_pz		4_ground_torque_x		4_ground_torque_y		4_ground_torque_z		
1.300333		0.000000		-0.000000		-0.000000		0.094183		0.000000		0.253884		-0.000000		-0.000000		0.000000		-0.000000		0.000000		0.000000		-0.197135		0.000000		0.253200		0.000000		-0.000000		0.000000		-11.870503		362.542711		-128.174404		0.381195		1.274731		1.890065		0.622856		-19.022823		6.725370		49.255852		325.293190		-135.682665		-0.351683		1.267869		1.877831		1.953955		12.904224		-5.382457		
1.303111		0.000000		-0.000000		-0.000000		0.094183		0.000000		0.253884		-0.000000		-0.000000		0.000000		-0.000000		-0.000000		0.000000		-0.197135		0.000000		0.253200		-0.000000		-0.000000		-0.000000		-10.379732		348.864474		-126.493309		0.381179		1.274762		1.890050		0.538384		-18.095062		6.561002		47.573347		311.823229		-135.202600		-0.351682		1.267891		1.877811		1.876469		12.299471		-5.332889		
1.305889		0.000000		-0.000000		-0.000000		0.094183		0.000000		0.253884		-0.000000		-0.000000		0.000000		-0.000000		-0.000000		-0.000000		-0.197135		0.000000		0.253200		-0.000000		0.000000		-0.000000		-8.780544		334.335431		-124.013876		0.381165		1.274798		1.890035		0.449810		-17.127179		6.352915		46.006825		298.136325		-133.915762		-0.351680		1.267909		1.877773		1.804082		11.690936		-5.251285		
1.308667		0.000000		-0.000000		-0.000000		0.094183		0.000000		0.253884		-0.000000		-0.000000		0.000000		-0.000000		-0.000000		-0.000000		-0.197135		0.000000		0.253200		-0.000000		0.000000		-0.000000		-7.082279		318.890086		-120.699913		0.381151		1.274842		1.890019		0.358078		-16.122680		6.102424		44.536611		284.166223		-131.774781		-0.351674		1.267925		1.877718		1.736004		11.076599		-5.136482		
1.311444		-0.000000		-0.000000		-0.000000		0.094183		0.000000		0.253884		-0.000000		-0.000000		0.000000		-0.000000		-0.000000		-0.000000		-0.197135		0.000000		0.253200		-0.000000		0.000000		-0.000000		-5.287566		302.476964		-116.536777		0.381136		1.274889		1.889999		0.263719		-15.085912		5.812219		43.117200		269.790611		-128.761173		-0.351663		1.267942		1.877647		1.670196		10.450667		-4.987718		
1.314222		-0.000000		0.000000		0.000000		0.094183		0.000000		0.253884		0.000000		0.000000		-0.000000		-0.000000		-0.000000		-0.000000		-0.197135		0.000000		0.253200		-0.000000		0.000000		-0.000000		-3.388513		285.047474		-111.521468		0.381116		1.274939		1.889972		0.166680		-14.020609		5.485389		41.675251		254.835999		-124.860694		-0.351647		1.267961		1.877556		1.603471		9.804928		-4.804064		
1.317000		-0.000000		0.000000		0.000000		0.094183		0.000000		0.253884		0.000000		0.000000		-0.000000		0.000000		-0.000000		-0.000000		-0.197135		0.000000		0.253200		-0.000000		0.000000		-0.000000		-1.375768		266.581271		-105.694320		0.381086		1.274985		1.889929		0.066725		-12.929271		5.126206		40.114965		239.122666		-120.077914		-0.351627		1.267981		1.877447		1.531896		9.131534		-4.585494		
1.319778		-0.000000		0.000000		0.000000		0.094183		0.000000		0.253884		0.000000		0.000000		-0.000000		0.000000		0.000000		-0.000000		-0.197135		0.000000		0.253200		0.000000		0.000000		0.000000		0.759529		247.036865		-99.107554		0.381041		1.275023		1.889863		-0.036301		-11.811219		4.738481		38.323204		222.470481		-114.394642		-0.351606		1.268003		1.877318		1.451136		8.424021		-4.331636		
1.322556		-0.000000		0.000000		0.000000		0.094183		0.000000		0.253884		0.000000		0.000000		-0.000000		0.000000		0.000000		0.000000		-0.197135		0.000000		0.253200		0.000000		-0.000000		0.000000		3.008772		226.410371		-91.868370		0.380978		1.275050		1.889763		3.296890		-23.259250		-26.599840		36.197499		204.789299		-107.823807		-0.351585		1.268023		1.877167		1.357619		7.680809		-4.044027		
1.325333		-0.000000		0.000000		0.000000		0.094183		0.000000		0.253884		0.000000		0.000000		-0.000000		0.000000		0.000000		0.000000		-0.197135		0.000000		0.253200		0.000000		-0.000000		0.000000		5.343009		204.697340		-84.089500		0.380896		1.275068		1.889623		3.142898		-21.052444		-24.041478		33.651484		186.069011		-100.373426		-0.351565		1.268041		1.876996		1.248748		6.904709		-3.724682		
1.328111		0.000000		-0.000000		0.000000		0.094183		0.000000		0.253884		-0.000000		-0.000000		0.000000		0.000000		0.000000		0.000000		-0.197135		0.000000		0.253200		0.000000		-0.000000		0.000000		7.695872		181.976682		-75.902863		0.380801		1.275080		1.889442		2.944090		-18.770423		-21.365869		30.649183		166.451080		-92.097236		-0.351547		1.268058		1.876809		1.124130		6.104986		-3.377877		
1.330889		0.000000		-0.000000		-0.000000		0.094183		0.000000		0.253884		-0.000000		-0.000000		0.000000		0.000000		0.000000		0.000000		-0.197135		0.000000		0.253200		0.000000		-0.000000		0.000000		9.951839		158.427339		-67.436639		0.380701		1.275093		1.889221		2.693930		-16.433701		-18.584435		27.207031		146.201302		-83.089281		-0.351533		1.268076		1.876612		0.985527		5.295889		-3.009759		
1.333667		0.000000		-0.000000		-0.000000		0.094183		0.000000		0.253884		-0.000000		-0.000000		0.000000		-0.000000		0.000000		0.000000		-0.197135		0.000000		0.253200		0.000000		-0.000000		0.000000		11.943161		134.396023		-58.811954		0.380605		1.275115		1.888963		-0.516620		-5.813943		2.544174		23.404397		125.703728		-73.508990		-0.351526		1.268101		1.876411		0.837015		4.495557		-2.628903		
1.336444		0.000000		-0.000000		-0.000000		0.094183		0.000000		0.253884		-0.000000		-0.000000		0.000000		-0.000000		-0.000000		0.000000		-0.197135		0.000000		0.253200		-0.000000		0.000000		-0.000000		13.468100		110.418896		-50.138055		0.380521		1.275149		1.888672		-0.561662		-4.604999		2.090986		19.376717		105.412550		-63.581340		-0.351524		1.268134		1.876210		0.684395		3.723221		-2.245720		
1.339222		0.000000		-0.000000		-0.000000		0.094183		0.000000		0.253884		-0.000000		-0.000000		0.000000		-0.000000		-0.000000		-0.000000		-0.197135		0.000000		0.253200		-0.000000		0.000000		-0.000000		14.319294		87.213962		-41.520246		0.380453		1.275197		1.888352		-0.568899		-3.465418		1.649754		15.300346		85.817565		-53.584168		-0.351529		1.268182		1.876010		0.534408		2.997411		-1.871567		
1.342000		0.000000		-0.000000		-0.000000		0.094183		0.000000		0.253884		-0.000000		-0.000000		0.000000		-0.000000		-0.000000		-0.000000		-0.197135		0.000000		0.253200		-0.000000		0.000000		-0.000000		14.357036		65.579934		-33.072579		0.380405		1.275255		1.888003		-0.535032		-2.443916		1.232490		11.372403		67.389154		-43.821704		-0.351541		1.268245		1.875810		0.393699		2.332934		-1.517057		
1.344778		-0.000000		0.000000		-0.000000		0.094183		0.000000		0.253884		0.000000		0.000000		-0.000000		-0.000000		-0.000000		-0.000000		-0.197135		0.000000		0.253200		-0.000000		0.000000		-0.000000		13.525554		46.340968		-24.945813		0.380375		1.275320		1.887630		-0.463620		-1.588801		0.855223		7.791441		50.606555		-34.601837		-0.351558		1.268318		1.875603		0.268312		1.742722		-1.191571		
1.347556		-0.000000		0.000000		0.000000		0.094183		0.000000		0.253884		0.000000		0.000000		-0.000000		0.000000		-0.000000		-0.000000		-0.197135		0.000000		0.253200		-0.000000		0.000000		-0.000000		11.925917		30.099754		-17.328888		0.380362		1.275387		1.887238		-0.367176		-0.926825		0.533575		4.717437		35.858031		-26.183045		-0.351576		1.268394		1.875387		0.233786		1.525950		-0.493776		
1.350333		-0.000000		0.000000		0.000000		0.094183		0.000000		0.253884		0.000000		0.000000		-0.000000		0.000000		0.000000		-0.000000		-0.197135		0.000000		0.253200		-0.000000		0.000000		0.000000		9.766296		17.269179		-10.479551		0.380363		1.275454		1.886838		-0.261039		-0.461808		0.280229		2.269802		23.500738		-18.789817		-0.351592		1.268466		1.875155		0.595972		2.805772		1.907414		
1.353111		-0.000000		0.000000		0.000000		0.094183		0.000000		0.253884		0.000000		0.000000		-0.000000		0.000000		0.000000		0.000000		-0.197135		0.000000		0.253200		0.000000		-0.000000		0.000000		7.350699		7.896480		-4.686968		0.380379		1.275522		1.886443		-0.153416		-0.165050		0.097996		0.489079		13.722893		-12.569247		-0.351603		1.268523		1.874908		0.389745		1.834154		1.062041		
1.355889		-0.000000		0.000000		0.000000		0.094183		0.000000		0.253884		0.000000		0.000000		-0.000000		0.000000		0.000000		0.000000		-0.197135		0.000000		0.253200		0.000000		-0.000000		0.000000		4.995024		1.764445		-0.241789		0.380411		1.275591		1.886070		0.030517		-0.176356		-0.110587		-0.653003		6.558780		-7.614644		-0.351608		1.268558		1.874646		0.221943		1.081082		0.462389		
1.358667		-0.000000		0.000000		0.000000		0.094183		0.000000		0.253884		0.000000		0.000000		-0.000000		0.000000		0.000000		0.000000		-0.197135		0.000000		0.253200		0.000000		-0.000000		0.000000		2.963319		-1.609662		2.667081		0.380461		1.275662		1.885731		-0.001580		0.204482		0.172895		-1.254409		1.827902		-3.940169		-0.351605		1.268572		1.874375		0.098672		0.536862		0.086087		
1.361444		0.000000		-0.000000		-0.000000		0.094183		0.000000		0.253884		-0.000000		-0.000000		0.000000		0.000000		0.000000		0.000000		-0.197135		0.000000		0.253200		0.000000		-0.000000		0.000000		1.412483		-2.882549		4.053301		0.380528		1.275735		1.885435		-0.017752		0.399136		0.284934		-1.457348		-0.842732		-1.467699		-0.351592		1.268563		1.874097		0.019402		0.179494		-0.108444		
